<svg xmlns="http://www.w3.org/2000/svg" width="25.737" height="29.413" viewBox="0 0 25.737 29.413">
  <path id="bell" d="M25.241,20.813c-1.11-1.193-3.187-2.987-3.187-8.864A9.072,9.072,0,0,0,14.7,3.036v-1.2a1.837,1.837,0,1,0-3.674,0v1.2a9.072,9.072,0,0,0-7.35,8.914c0,5.877-2.077,7.671-3.187,8.864A1.8,1.8,0,0,0,0,22.06,1.84,1.84,0,0,0,1.843,23.9H23.892a1.84,1.84,0,0,0,1.844-1.838A1.794,1.794,0,0,0,25.241,20.813Zm-21.363.328c1.219-1.607,2.552-4.27,2.558-9.158,0-.011,0-.022,0-.033a6.434,6.434,0,1,1,12.868,0c0,.011,0,.022,0,.033.006,4.889,1.339,7.552,2.558,9.158Zm8.989,8.272a3.676,3.676,0,0,0,3.675-3.677H9.193A3.676,3.676,0,0,0,12.868,29.413Z" transform="translate(0.001)" fill="#fffcfc"/>
</svg>
