<svg xmlns="http://www.w3.org/2000/svg" width="30.614" height="30.614" viewBox="0 0 30.614 30.614">
  <path id="check-circle" d="M23.307,8A15.307,15.307,0,1,0,38.614,23.307,15.307,15.307,0,0,0,23.307,8Zm0,2.963A12.344,12.344,0,1,1,10.963,23.307,12.338,12.338,0,0,1,23.307,10.963M31.961,19,30.57,17.6a.741.741,0,0,0-1.047,0L20.8,26.251l-3.69-3.72a.741.741,0,0,0-1.047,0l-1.4,1.391a.741.741,0,0,0,0,1.047l5.6,5.649a.741.741,0,0,0,1.047,0L31.957,20.05a.741.741,0,0,0,0-1.047Z" transform="translate(-8 -8)" fill="#20ff36"/>
</svg>
