<svg xmlns="http://www.w3.org/2000/svg" width="48" height="48" viewBox="0 0 48 48">
  <path id="fantasy-flight-games" d="M24,3.081,3.081,24,24,44.919,44.919,24ZM8.282,23.984c.184-.187,1.117-1.153,9.046-9.139,3.886-3.914,8.08-4.1,11.228-1.752a58.924,58.924,0,0,1,5.827,5.531c.064.069.1.268.054.317-1.057,1.11-2.126,2.207-3.141,3.252a51.973,51.973,0,0,0-4.548-4.12,4.144,4.144,0,0,0-5.342.478c-.2.2-.168.322.011.5.276.277,2.634,2.656,3.29,3.354l-3.346,3.249-3.426-3.573-5.8,5.718Q10.209,25.9,8.282,23.985ZM30.3,33.509c-3.327,3.322-7.321,3.576-10.03,1.919-2.07-1.266-3.692-3.007-6.837-6.266l3.316-3.4c3.1,2.992,3.474,3.376,4.189,3.946a4.17,4.17,0,0,0,5.561-.169c.345-.318.346-.341.013-.679q-1.489-1.509-2.978-3.017c-.124-.126-.284-.233-.075-.44,1.012-1,2.014-2.018,3.02-3.027a1.14,1.14,0,0,1,.179-.1L30.145,25.9l5.742-5.664,3.831,3.753c-1.891,1.956-7.658,7.754-9.422,9.516ZM24,0,0,24,24,48,48,24ZM1.5,24,24,1.5,46.5,24,24,46.5Z" fill="#fffcfc"/>
</svg>
