<svg xmlns="http://www.w3.org/2000/svg" width="26.996" height="25.753" viewBox="0 0 26.996 25.753">
  <path id="power-off" d="M29.336,2.764A12.433,12.433,0,0,1,35,13.081c0,6.99-6.031,12.657-13.471,12.672S8.011,20.081,8,13.1A12.456,12.456,0,0,1,13.65,2.769a1.359,1.359,0,0,1,1.9.393l.86,1.436a1.178,1.178,0,0,1-.359,1.584,8.386,8.386,0,0,0-3.7,6.893A8.869,8.869,0,0,0,21.5,21.665c4.986,0,9.177-3.791,9.144-8.641a8.429,8.429,0,0,0-3.707-6.847A1.172,1.172,0,0,1,26.582,4.6l.86-1.436a1.353,1.353,0,0,1,1.894-.4ZM23.675,13.49V1.226A1.265,1.265,0,0,0,22.369,0H20.627a1.265,1.265,0,0,0-1.306,1.226V13.49a1.265,1.265,0,0,0,1.306,1.226h1.742A1.265,1.265,0,0,0,23.675,13.49Z" transform="translate(-8)" fill="#fffcfc"/>
</svg>
